<?xml version="1.0" standalone="no"?><!DOCTYPE svg PUBLIC "-//W3C//DTD SVG 1.1//EN" "http://www.w3.org/Graphics/SVG/1.1/DTD/svg11.dtd"><svg t="1553061592977" class="icon" style="" viewBox="0 0 1024 1024" version="1.1" xmlns="http://www.w3.org/2000/svg" p-id="10855" xmlns:xlink="http://www.w3.org/1999/xlink" width="48" height="48"><defs><style type="text/css"></style></defs><path d="M131.584 137.728h545.792c18.432 0 33.28-14.848 33.28-33.28s-14.848-33.28-33.28-33.28H131.584c-18.432 0-33.28 14.848-33.28 33.28s14.848 33.28 33.28 33.28z" fill="#1296db" p-id="10856"></path><path d="M661.504 222.72H132.096c-18.432 0-33.28 14.848-33.28 33.28s14.848 33.28 33.28 33.28h529.408c126.464 0 229.888 102.912 229.888 229.888s-102.912 229.888-229.888 229.888h-481.28L266.24 663.04c12.8-12.8 12.8-34.304 0-47.104-12.8-12.8-34.304-12.8-47.104 0l-142.848 142.848c-12.8 12.8-12.8 34.304 0 47.104l142.848 142.848c6.656 6.656 14.848 9.728 23.552 9.728s16.896-3.072 23.552-9.728c12.8-12.8 12.8-34.304 0-47.104l-86.016-86.016h481.28c163.328 0 296.448-133.12 296.448-296.448s-133.12-296.448-296.448-296.448z" fill="#1296db" p-id="10857"></path></svg>