<?xml version="1.0" standalone="no"?><!DOCTYPE svg PUBLIC "-//W3C//DTD SVG 1.1//EN" "http://www.w3.org/Graphics/SVG/1.1/DTD/svg11.dtd"><svg t="1552627797426" class="icon" style="" viewBox="0 0 1024 1024" version="1.1" xmlns="http://www.w3.org/2000/svg" p-id="8041" xmlns:xlink="http://www.w3.org/1999/xlink" width="48" height="48"><defs><style type="text/css"></style></defs><path d="M584.533333 699.733333c-12.8 0-21.333333 0-25.6-4.266667-4.266667-4.266667-8.533333-12.8-8.533333-21.333333 0-4.266667 0-12.8 4.266667-21.333333 0-8.533333 4.266667-17.066667 4.266667-21.333333l25.6-85.333333c4.266667-8.533333 4.266667-17.066667 4.266667-25.6 0-8.533333 0-17.066667 0-21.333333 0-17.066667-8.533333-34.133333-21.333333-42.666667-12.8-12.8-29.866667-17.066667-55.466667-17.066667-12.8 0-25.6 4.266667-42.666667 8.533333-12.8 4.266667-29.866667 8.533333-46.933333 17.066667l-8.533333 25.6c4.266667 0 8.533333-4.266667 17.066667-4.266667 8.533333 0 12.8-4.266667 21.333333-4.266667 12.8 0 21.333333 4.266667 25.6 4.266667 4.266667 4.266667 8.533333 12.8 8.533333 21.333333 0 4.266667 0 12.8-4.266667 21.333333 0 8.533333-4.266667 17.066667-4.266667 21.333333l-25.6 85.333333c-4.266667 8.533333-4.266667 17.066667-4.266667 25.6 0 8.533333 0 12.8 0 21.333333 0 17.066667 8.533333 29.866667 21.333333 42.666667 12.8 12.8 29.866667 17.066667 55.466667 17.066667 17.066667 0 29.866667 0 42.666667-4.266667 12.8-4.266667 25.6-8.533333 46.933333-17.066667l8.533333-25.6c-4.266667 0-8.533333 4.266667-17.066667 4.266667C597.333333 699.733333 588.8 699.733333 584.533333 699.733333zM524.8 55.466667C268.8 55.466667 64 260.266667 64 512c0 251.733333 204.8 456.533333 456.533333 456.533333C776.533333 968.533333 981.333333 763.733333 981.333333 512 981.333333 260.266667 776.533333 55.466667 524.8 55.466667zM524.8 930.133333c-230.4 0-418.133333-187.733333-418.133333-418.133333s187.733333-418.133333 418.133333-418.133333c230.4 0 418.133333 187.733333 418.133333 418.133333S755.2 930.133333 524.8 930.133333zM567.466667 281.6c-17.066667 0-29.866667 4.266667-42.666667 17.066667C516.266667 307.2 512 320 512 337.066667c0 12.8 4.266667 25.6 17.066667 38.4 12.8 8.533333 25.6 17.066667 42.666667 17.066667 17.066667 0 29.866667-4.266667 42.666667-17.066667s17.066667-21.333333 17.066667-38.4c0-12.8-4.266667-25.6-17.066667-38.4S584.533333 281.6 567.466667 281.6z" p-id="8042" fill="#8a8a8a"></path></svg>